{
    "asset" : {
        "generator" : "Khronos glTF Blender I/O v1.7.33",
        "version" : "2.0"
    },
    "extensionsUsed" : [
        "KHR_materials_unlit"
    ],
    "scene" : 0,
    "scenes" : [
        {
            "name" : "Scene",
            "nodes" : [
                3
            ]
        }
    ],
    "nodes" : [
        {
            "name" : "\u30bb\u30f3\u30bf\u30fc"
        },
        {
            "mesh" : 0,
            "name" : "\u8981\u77f3_mesh",
            "skin" : 0
        },
        {
            "children" : [
                1,
                0
            ],
            "name" : "\u8981\u77f3_arm"
        },
        {
            "children" : [
                2
            ],
            "name" : "\u8981\u77f3"
        }
    ],
    "materials" : [
        {
            "alphaMode" : "BLEND",
            "doubleSided" : true,
            "extensions" : {
                "KHR_materials_unlit" : {}
            },
            "name" : "\u6750\u8cea0",
            "pbrMetallicRoughness" : {
                "baseColorTexture" : {
                    "index" : 0
                },
                "metallicFactor" : 0,
                "roughnessFactor" : 0.9
            }
        }
    ],
    "meshes" : [
        {
            "extras" : {
                "targetNames" : [
                    "\u62e1\u5927",
                    "\u7e2e\u5c0f"
                ]
            },
            "name" : "\u8981\u77f3",
            "primitives" : [
                {
                    "attributes" : {
                        "POSITION" : 0,
                        "NORMAL" : 1,
                        "TEXCOORD_0" : 2,
                        "JOINTS_0" : 3,
                        "WEIGHTS_0" : 4
                    },
                    "indices" : 5,
                    "material" : 0,
                    "targets" : [
                        {
                            "POSITION" : 6,
                            "NORMAL" : 7
                        },
                        {
                            "POSITION" : 8,
                            "NORMAL" : 9
                        }
                    ]
                }
            ],
            "weights" : [
                0,
                0
            ]
        }
    ],
    "textures" : [
        {
            "sampler" : 0,
            "source" : 0
        }
    ],
    "images" : [
        {
            "bufferView" : 6,
            "mimeType" : "image/png",
            "name" : "kanameishi"
        }
    ],
    "skins" : [
        {
            "inverseBindMatrices" : 10,
            "joints" : [
                0
            ],
            "name" : "\u8981\u77f3_arm"
        }
    ],
    "accessors" : [
        {
            "bufferView" : 0,
            "componentType" : 5126,
            "count" : 1412,
            "max" : [
                19.204328536987305,
                0,
                19.204328536987305
            ],
            "min" : [
                -19.204328536987305,
                -19.617107391357422,
                -19.204328536987305
            ],
            "type" : "VEC3"
        },
        {
            "bufferView" : 1,
            "componentType" : 5126,
            "count" : 1412,
            "type" : "VEC3"
        },
        {
            "bufferView" : 2,
            "componentType" : 5126,
            "count" : 1412,
            "type" : "VEC2"
        },
        {
            "bufferView" : 3,
            "componentType" : 5121,
            "count" : 1412,
            "type" : "VEC4"
        },
        {
            "bufferView" : 4,
            "componentType" : 5126,
            "count" : 1412,
            "type" : "VEC4"
        },
        {
            "bufferView" : 5,
            "componentType" : 5123,
            "count" : 3810,
            "type" : "SCALAR"
        },
        {
            "bufferView" : 7,
            "componentType" : 5126,
            "count" : 1412,
            "max" : [
                19.204328536987305,
                0,
                19.204328536987305
            ],
            "min" : [
                -19.204328536987305,
                -19.617107391357422,
                -19.204328536987305
            ],
            "type" : "VEC3"
        },
        {
            "bufferView" : 8,
            "componentType" : 5126,
            "count" : 1412,
            "type" : "VEC3"
        },
        {
            "bufferView" : 9,
            "componentType" : 5126,
            "count" : 1412,
            "max" : [
                17.28389549255371,
                17.655397415161133,
                17.28389549255371
            ],
            "min" : [
                -17.28389549255371,
                0,
                -17.28389549255371
            ],
            "type" : "VEC3"
        },
        {
            "bufferView" : 10,
            "componentType" : 5126,
            "count" : 1412,
            "type" : "VEC3"
        },
        {
            "bufferView" : 11,
            "componentType" : 5126,
            "count" : 1,
            "type" : "MAT4"
        }
    ],
    "bufferViews" : [
        {
            "buffer" : 0,
            "byteLength" : 16944,
            "byteOffset" : 0
        },
        {
            "buffer" : 0,
            "byteLength" : 16944,
            "byteOffset" : 16944
        },
        {
            "buffer" : 0,
            "byteLength" : 11296,
            "byteOffset" : 33888
        },
        {
            "buffer" : 0,
            "byteLength" : 5648,
            "byteOffset" : 45184
        },
        {
            "buffer" : 0,
            "byteLength" : 22592,
            "byteOffset" : 50832
        },
        {
            "buffer" : 0,
            "byteLength" : 7620,
            "byteOffset" : 73424
        },
        {
            "buffer" : 0,
            "byteLength" : 407426,
            "byteOffset" : 81044
        },
        {
            "buffer" : 0,
            "byteLength" : 16944,
            "byteOffset" : 488472
        },
        {
            "buffer" : 0,
            "byteLength" : 16944,
            "byteOffset" : 505416
        },
        {
            "buffer" : 0,
            "byteLength" : 16944,
            "byteOffset" : 522360
        },
        {
            "buffer" : 0,
            "byteLength" : 16944,
            "byteOffset" : 539304
        },
        {
            "buffer" : 0,
            "byteLength" : 64,
            "byteOffset" : 556248
        }
    ],
    "samplers" : [
        {
            "magFilter" : 9729,
            "minFilter" : 9987
        }
    ],
    "buffers" : [
        {
            "byteLength" : 556312,
            "uri" : "data:application/octet-stream;base64,"
        }
    ]
}
